<?xml version="1.0" encoding="UTF-8"?>
<svg xmlns="http://www.w3.org/2000/svg" xmlns:xlink="http://www.w3.org/1999/xlink" width="400pt" height="400pt" viewBox="0 0 400 400" version="1.1">
<g id="surface1477163">
<path style=" stroke:none;fill-rule:nonzero;fill:rgb(100%,100%,100%);fill-opacity:1;" d="M 121.226562 71.84375 C 92.554688 71.84375 69.226562 95.171875 69.226562 123.84375 L 69.226562 279.84375 C 69.226562 308.515625 92.554688 331.84375 121.226562 331.84375 L 277.226562 331.84375 C 305.898438 331.84375 329.226562 308.515625 329.226562 279.84375 L 329.226562 123.84375 C 329.226562 95.167969 305.902344 71.84375 277.226562 71.84375 Z M 121.226562 79.84375 L 277.226562 79.84375 C 301.488281 79.84375 321.226562 99.582031 321.226562 123.84375 L 321.226562 279.84375 C 321.226562 304.105469 301.488281 323.84375 277.226562 323.84375 L 121.226562 323.84375 C 96.964844 323.84375 77.226562 304.105469 77.226562 279.84375 L 77.226562 123.84375 C 77.226562 99.582031 96.964844 79.84375 121.226562 79.84375 Z M 132.578125 91.84375 C 108.675781 91.84375 89.226562 111.292969 89.226562 135.195312 L 89.226562 268.492188 C 89.226562 292.394531 108.675781 311.84375 132.578125 311.84375 L 265.882812 311.84375 C 289.785156 311.84375 309.226562 292.394531 309.226562 268.492188 L 309.226562 193.84375 C 309.226562 192.734375 308.332031 191.84375 307.226562 191.84375 C 306.121094 191.84375 305.226562 192.738281 305.226562 193.84375 L 305.226562 268.492188 C 305.226562 290.1875 287.578125 307.84375 265.882812 307.84375 L 132.578125 307.84375 C 110.882812 307.84375 93.226562 290.1875 93.226562 268.492188 L 93.226562 135.195312 C 93.226562 113.5 110.882812 95.84375 132.578125 95.84375 L 267.226562 95.84375 C 268.332031 95.84375 269.226562 94.949219 269.226562 93.84375 C 269.226562 92.738281 268.332031 91.84375 267.226562 91.84375 Z M 200.515625 130.367188 C 195.449219 130.367188 191.003906 132.019531 187.296875 135.289062 C 183.523438 138.621094 181.609375 142.804688 181.609375 147.710938 C 181.609375 150.179688 182.140625 152.511719 183.1875 154.640625 C 184.203125 156.714844 185.574219 158.554688 187.265625 160.109375 C 188.945312 161.652344 190.933594 162.902344 193.164062 163.828125 C 195.425781 164.769531 197.898438 165.242188 200.515625 165.242188 C 205.738281 165.242188 210.203125 163.511719 213.789062 160.085938 C 217.394531 156.632812 219.21875 152.472656 219.21875 147.710938 C 219.21875 142.933594 217.34375 138.796875 213.65625 135.40625 C 210.011719 132.0625 205.59375 130.367188 200.515625 130.367188 Z M 200.523438 134.367188 C 204.628906 134.367188 208.03125 135.675781 210.953125 138.359375 C 213.824219 141 215.226562 144.058594 215.226562 147.71875 C 215.226562 151.394531 213.855469 154.5 211.03125 157.203125 C 208.179688 159.929688 204.738281 161.25 200.523438 161.25 C 198.433594 161.25 196.472656 160.878906 194.695312 160.140625 C 192.894531 159.394531 191.308594 158.398438 189.976562 157.179688 C 188.652344 155.964844 187.578125 154.523438 186.78125 152.890625 C 186.007812 151.304688 185.609375 149.566406 185.609375 147.71875 C 185.609375 143.953125 187.023438 140.863281 189.945312 138.289062 C 192.9375 135.644531 196.398438 134.367188 200.523438 134.367188 Z M 307.226562 147.84375 C 306.121094 147.84375 305.226562 148.734375 305.226562 149.84375 L 305.226562 157.84375 C 305.226562 158.949219 306.121094 159.84375 307.226562 159.84375 C 308.332031 159.84375 309.226562 158.949219 309.226562 157.84375 L 309.226562 149.84375 C 309.226562 148.738281 308.332031 147.84375 307.226562 147.84375 Z M 307.226562 163.84375 C 306.121094 163.84375 305.226562 164.738281 305.226562 165.84375 L 305.226562 181.84375 C 305.226562 182.949219 306.121094 183.84375 307.226562 183.84375 C 308.332031 183.84375 309.226562 182.949219 309.226562 181.84375 L 309.226562 165.84375 C 309.226562 164.734375 308.332031 163.84375 307.226562 163.84375 Z M 171.03125 176.054688 C 169.925781 176.054688 169.03125 176.949219 169.03125 178.054688 L 169.03125 188.351562 C 169.03125 189.457031 169.925781 190.351562 171.03125 190.351562 C 185.5625 190.351562 185.5625 195.1875 185.5625 196.78125 L 185.5625 251.679688 C 185.5625 253.316406 185.5625 257.679688 171.03125 257.679688 C 169.925781 257.679688 169.03125 258.574219 169.03125 259.679688 L 169.03125 269.96875 C 169.03125 271.074219 169.925781 271.96875 171.03125 271.96875 L 231.0625 271.96875 C 232.167969 271.96875 233.0625 271.074219 233.0625 269.96875 L 233.0625 259.679688 C 233.0625 258.574219 232.167969 257.679688 231.0625 257.679688 C 224.15625 257.679688 219.726562 256.695312 217.890625 254.765625 C 217.128906 253.964844 216.808594 252.972656 216.875 251.640625 L 216.875 178.054688 C 216.875 176.949219 215.980469 176.054688 214.875 176.054688 Z M 173.03125 180.054688 L 212.867188 180.054688 L 212.867188 251.507812 C 212.757812 253.917969 213.46875 255.941406 214.984375 257.53125 C 217.457031 260.128906 221.953125 261.445312 229.0625 261.648438 L 229.0625 267.96875 L 173.03125 267.96875 L 173.03125 261.65625 C 178.742188 261.53125 189.5625 260.488281 189.5625 251.679688 L 189.5625 196.78125 C 189.5625 190.242188 184.003906 186.75 173.03125 186.382812 Z M 173.03125 180.054688 "/>
</g>
</svg>
